<svg width="1102" height="1024" viewBox="0 0 1102 1024" fill="none" xmlns="http://www.w3.org/2000/svg">
<path d="M351.437 1001.44L374.596 998.81L375.48 908.237L341.3 912.117L351.437 1001.44Z" fill="#FFB8B8"/>
<path d="M421.697 1015.25L348.915 1023.51L345.724 995.386L390.386 990.318C397.844 989.472 405.333 991.623 411.205 996.298C417.077 1000.97 420.851 1007.79 421.697 1015.25Z" fill="#2F2E41"/>
<path d="M120.874 999.993H144.181L155.268 910.093L120.87 910.097L120.874 999.993Z" fill="#FFB8B8"/>
<path d="M189.131 1021.63L115.881 1021.64L115.88 993.334L160.829 993.332C168.335 993.332 175.533 996.313 180.841 1001.62C186.149 1006.93 189.131 1014.13 189.131 1021.63Z" fill="#2F2E41"/>
<path d="M288.096 597.973L301.404 641.259L373.645 797.586L392.655 945.87L348.931 947.771L322.315 810.894L231.064 712.038L151.219 970.584L115.098 966.782C115.098 966.782 145.515 632.192 187.339 597.973C187.339 597.973 255.778 565.655 288.096 597.973Z" fill="#2F2E41"/>
<path d="M229.065 411.2C254.853 411.2 275.758 390.295 275.758 364.508C275.758 338.72 254.853 317.815 229.065 317.815C203.278 317.815 182.373 338.72 182.373 364.508C182.373 390.295 203.278 411.2 229.065 411.2Z" fill="#FFB8B8"/>
<path d="M292.849 606.528C292.849 606.528 298.552 412.618 218.707 425.925C138.861 439.233 172.13 626.489 172.13 626.489C172.13 626.489 189.24 660.708 231.064 622.687C272.887 584.665 292.849 606.528 292.849 606.528Z" fill="#CCCCCC"/>
<path opacity="0.2" d="M182.587 507.677L201.375 579.695L230 608.322L190.191 595.126L182.587 507.677Z" fill="black"/>
<path d="M285.834 688.538C283.207 687.585 280.82 686.068 278.843 684.093C276.865 682.119 275.344 679.734 274.388 677.108C273.432 674.482 273.062 671.678 273.307 668.894C273.551 666.11 274.403 663.414 275.802 660.994L231.395 609.583L266.402 605.026L303.205 654.546C307.113 657.166 309.925 661.129 311.107 665.683C312.289 670.238 311.759 675.068 309.618 679.257C307.476 683.447 303.873 686.706 299.489 688.417C295.106 690.127 290.247 690.17 285.834 688.538Z" fill="#FFB8B8"/>
<path d="M239.371 465.426L244.371 563.758L303.304 639.801L278.59 658.812L198.745 578.967C198.745 578.967 170.229 482.012 191.141 453.496C198.983 442.802 207.627 439.861 215.368 440.363C221.738 440.893 227.694 443.734 232.115 448.35C236.536 452.967 239.117 459.04 239.371 465.426Z" fill="#CCCCCC"/>
<path d="M223.512 413.573C223.735 413.373 223.908 413.124 224.018 412.846C224.128 412.567 224.172 412.267 224.145 411.968C224.119 411.67 224.023 411.382 223.866 411.127C223.709 410.872 223.495 410.658 223.24 410.5C219.094 407.932 215.715 404.295 213.46 399.971C211.205 395.646 210.156 390.794 210.424 385.925C210.691 381.055 212.266 376.347 214.981 372.296C217.697 368.245 221.453 365 225.856 362.902C239.584 356.357 258.186 361.449 268.334 348.871C270.398 346.18 271.857 343.076 272.612 339.77C273.368 336.464 273.402 333.034 272.711 329.714C270.522 317.834 261.591 309.012 251.59 302.966C239.304 295.539 225.184 291.702 210.829 291.888C196.474 292.075 182.458 296.279 170.369 304.023C158.281 311.767 148.603 322.742 142.432 335.704C136.261 348.666 133.844 363.098 135.455 377.364C136.746 388.797 140.274 401.617 133.475 410.9C127.492 419.07 116.198 420.602 106.277 422.632C84.9981 426.986 64.4693 437.03 50.029 453.255C35.5886 469.479 27.8851 492.242 32.2389 513.521C36.5927 534.8 54.0595 553.501 75.5276 556.799C93.0016 559.484 111.045 552.063 123.877 539.902C136.709 527.741 144.82 511.319 149.936 494.396C156.008 474.31 158.403 452.667 169.366 434.775C180.094 417.266 203.213 404.716 221.332 413.834C221.679 414.015 222.074 414.088 222.463 414.041C222.852 413.994 223.217 413.832 223.512 413.573Z" fill="#2F2E41"/>
<path d="M585.532 1024H1.90108C1.39688 1024 0.913303 1023.8 0.556782 1023.44C0.200261 1023.09 0 1022.6 0 1022.1C0 1021.6 0.200261 1021.11 0.556782 1020.76C0.913303 1020.4 1.39688 1020.2 1.90108 1020.2H585.532C586.036 1020.2 586.519 1020.4 586.876 1020.76C587.232 1021.11 587.433 1021.6 587.433 1022.1C587.433 1022.6 587.232 1023.09 586.876 1023.44C586.519 1023.8 586.036 1024 585.532 1024Z" fill="#3F3D56"/>
<path d="M979.3 376.738C979.195 430.588 958.949 482.451 922.543 522.131C886.137 561.81 836.205 586.436 782.562 591.167C728.92 595.898 675.449 580.392 632.66 547.696C589.871 515.001 560.86 467.482 551.331 414.482C541.801 361.481 552.443 306.833 581.163 261.281C609.884 215.728 654.605 182.567 706.536 168.317C758.466 154.066 813.849 159.757 861.797 184.27C909.744 208.783 946.788 250.346 965.645 300.787C966.115 302.053 966.574 303.32 967.02 304.599V304.611C969.011 310.232 970.764 315.958 972.279 321.789C976.956 339.731 979.316 358.197 979.3 376.738Z" fill="#3F3D56"/>
<path d="M738.403 230.236C728.645 224.959 717.81 221.98 706.726 221.527C695.642 221.073 684.6 223.157 674.443 227.619C665.501 231.511 656.084 238.493 653.101 251.1C665.166 243.979 680.785 255.23 683.89 273.278L683.165 273.478C681.525 285.979 685.186 299.59 692.273 307.341C692.8 303.843 694.1 300.507 696.077 297.574C698.054 294.642 700.66 292.186 703.705 290.386C708.912 286.963 714.673 284.477 718.648 278.593C723.359 271.617 724.556 261.423 726.428 252.123C728.299 242.823 731.851 232.827 738.403 230.236Z" fill="#F17523"/>
<path d="M670.864 336.613C667.523 341.631 663.059 344.78 659.054 348.7C654.431 352.906 651.398 358.576 650.465 364.756C649.959 369.123 650.743 373.563 650.634 377.978C650.526 382.393 649.054 387.363 646.05 388.461C641.309 390.174 637.69 381.368 632.817 380.752C628.944 380.27 625.458 386.362 626.58 391.646C627.702 396.929 632.973 399.27 636.001 395.82C638.74 400.416 636.809 408.752 632.696 410.163C632.261 413.058 631.827 415.941 631.405 418.836C621.006 411.562 610.499 404.167 601.657 393.515C591.823 381.769 585.723 367.352 584.141 352.114C582.995 339.87 584.696 325.864 579.074 316.443C574.575 308.903 566.854 307.238 559.905 307.709C558.639 307.793 557.36 307.938 556.093 308.095C560.191 295.787 565.396 283.876 571.643 272.508C573.057 271.901 574.37 271.083 575.539 270.083C582.005 264.594 584.877 253.484 590.124 245.799C590.462 245.305 590.812 244.822 591.173 244.352C596.542 237.343 603.731 233.736 610.68 230.382C626.061 222.915 641.888 215.351 658.125 216.389L653.505 216.835C648.113 231.938 642.716 247.042 637.316 262.145C636.495 264.461 635.667 266.781 634.831 269.106C631.767 277.695 628.606 286.839 629.077 296.454C629.354 302.147 631.332 308.227 635.096 310.182C638.607 311.991 642.443 309.771 645.832 307.576C647.268 306.659 648.692 305.742 650.127 304.813C655.278 301.496 660.984 298.094 666.424 300.314C671.407 302.34 675.086 309.108 675.786 316.406C676.427 323.501 674.696 330.608 670.864 336.613Z" fill="#F17523"/>
<path d="M701.5 439.729C686.456 430.466 671.412 421.203 656.367 411.94L656.623 411.282C647.269 414.845 643.385 431.472 644.931 445.069C646.477 458.666 651.719 470.821 654.367 484.07C657.937 502.201 656.59 520.956 650.464 538.39C670.246 516.194 687.753 492.069 702.722 466.38C704.814 463.142 706.407 459.609 707.45 455.898C708.554 451.944 708.16 447.721 706.344 444.038C705.113 442.221 703.448 440.74 701.5 439.729Z" fill="#F17523"/>
<path d="M642.126 271.206C640.359 274.999 640.087 279.319 641.364 283.304C642.848 286.514 645.541 289.008 648.855 290.243L657.168 294.363C659.933 295.734 662.914 297.118 665.733 295.991C669.134 294.63 671.491 289.3 670.881 284.351C670.232 279.084 666.913 275.462 663.843 272.377C659.546 268.06 655.25 263.744 650.954 259.427L648.533 262.392C645.914 264.947 643.747 267.927 642.126 271.206Z" fill="#F17523"/>
<path d="M934.738 327.507C938.478 328.388 942.218 329.269 945.957 330.149C945.306 342.78 939.045 354.469 930.649 358.703C927.151 360.465 923.254 361.116 920.359 364.409C917.741 367.401 916.414 372.057 915.196 376.509C913.06 384.278 910.925 392.046 908.79 399.815C906.498 408.187 903.555 417.488 897.595 420.504C892.48 423.097 886.63 419.925 882.697 414.605C878.764 409.285 876.364 402.131 874.035 395.159C874.18 402.759 870.646 410.214 865.639 412.856C860.621 415.497 854.517 413.109 851.163 407.21C848.751 402.976 847.749 397.39 845.385 393.096C843.021 388.801 838.063 386.341 835.481 390.37C833.78 393.048 833.997 397.149 833.153 400.551C832.728 402.81 831.609 404.88 829.953 406.473C828.297 408.066 826.186 409.104 823.912 409.442C821.822 409.394 819.763 408.921 817.861 408.052C815.96 407.183 814.255 405.936 812.85 404.387C805.463 396.831 800.654 387.132 799.11 376.678C798.063 371.665 798.196 366.479 799.496 361.526C800.98 356.834 804.562 353.215 808.121 354.107C810.461 349.161 805.841 342.599 801.679 343.178C797.505 343.757 794.236 348.232 790.81 351.67C787.396 355.108 782.619 357.606 779.181 354.192C779.258 355.44 778.836 356.668 778.007 357.606C777.179 358.543 776.012 359.113 774.763 359.19C774.639 359.197 774.516 359.2 774.392 359.198C772.106 358.542 769.982 357.416 768.155 355.893C760.278 350.983 750.277 354.24 744.68 363.529C748.178 348.642 753.305 331.561 764.054 328.062C768.445 326.627 773.234 327.809 777.384 325.324C784.73 320.921 786.214 304.285 779.869 297.421C780.677 303.911 780.52 311.487 777.094 315.927C773.668 320.366 766.478 317.471 766.913 310.908C766.815 311.831 766.428 312.7 765.807 313.389C765.186 314.079 764.362 314.554 763.454 314.747C762.546 314.939 761.601 314.84 760.753 314.463C759.905 314.085 759.198 313.449 758.734 312.645C756.454 309.171 756.647 303.489 758.264 299.339C759.93 295.581 762.32 292.187 765.296 289.351C771.027 283.211 776.841 276.998 783.476 273.138C790.123 269.278 797.795 267.975 804.454 271.811C807.965 273.838 811.053 277.215 814.636 279.001C815.478 279.523 816.414 279.875 817.392 280.035C818.37 280.195 819.369 280.162 820.334 279.936C821.299 279.71 822.21 279.296 823.014 278.718C823.819 278.14 824.502 277.41 825.025 276.568C825.065 276.503 825.105 276.437 825.143 276.371C827.809 271.69 826.554 264.742 827.544 258.891C829.317 248.553 839.655 243.715 845.385 250.543C841.103 249.445 836.675 254.512 836.145 260.652C835.602 266.792 838.702 272.993 842.852 274.851C849.825 277.939 856.652 270.17 861.924 262.98C867.425 255.453 872.934 247.929 878.451 240.41C879.332 239.13 880.321 237.927 881.406 236.815C883.134 235.131 885.438 234.166 887.85 234.117C890.262 234.068 892.603 234.938 894.399 236.55C899.972 241.098 902.59 250.423 907.162 256.84C913.796 266.165 923.725 268.433 932.965 270.243C939.853 271.582 946.745 272.929 953.642 274.284C958.239 282.836 962.249 291.691 965.645 300.787C952.999 306.554 942.272 315.827 934.738 327.507Z" fill="#F17523"/>
<path d="M957.007 472.649C951.839 483.143 945.828 493.201 939.033 502.723C934.69 500.865 930.022 504.182 925.956 507.295C921.71 510.552 916.607 513.725 912.252 510.757C907.801 507.717 906.365 499.212 907.777 492.469C909.399 486.248 912.236 480.41 916.125 475.29C919.744 469.886 923.616 464.277 928.646 462.178C933.689 460.079 940.167 463.046 941.639 470.212L945.209 470.091C943.207 467.341 944.256 461.647 946.947 460.646C950.047 459.475 952.737 463.734 954.571 467.498C955.391 469.198 956.223 470.912 957.007 472.649Z" fill="#F17523"/>
<path d="M820.25 421.697C812.575 422.179 806.496 412.731 802.456 403.436C798.416 394.141 794.73 383.511 787.804 378.78C783.847 376.076 779.336 375.705 775.044 374.395C772.61 373.78 770.357 372.594 768.472 370.935C766.588 369.276 765.126 367.191 764.207 364.854L759.339 362.888C752.529 366.292 746.292 370.739 740.854 376.068C734.64 382.669 730.769 391.13 729.839 400.148C728.909 409.893 732.344 420.76 738.761 424.42C743.831 427.313 749.735 425.49 754.871 428.138C761.288 431.446 765.098 441.057 766.54 450.547C767.982 460.037 767.616 469.898 768.648 479.496C769.68 489.093 772.523 499.079 778.408 503.998C785.773 510.152 796.579 505.038 799.883 493.835C801.503 488.339 801.447 482.138 802.66 476.433C804.794 466.387 810.555 458.934 815.123 450.693C819.692 442.453 823.289 431.261 820.25 421.697Z" fill="#F17523"/>
<path d="M744.409 322.984C745.124 323.643 745.792 324.352 746.407 325.106C747.044 326.203 747.369 327.454 747.347 328.722C747.325 329.99 746.958 331.229 746.285 332.304C747.209 332.251 748.113 332.008 748.938 331.588C749.764 331.169 750.493 330.582 751.081 329.867C752.481 328.271 753.714 326.535 754.758 324.687C755.249 324.054 755.599 323.323 755.786 322.544C755.973 321.765 755.992 320.955 755.842 320.168C755.479 319.134 754.622 318.692 754.021 317.914C753.188 316.392 752.619 314.74 752.339 313.028C752.006 311.424 751.231 309.944 750.103 308.755C748.975 307.566 747.538 306.716 745.953 306.299L746.338 306.372C745.683 306.761 745.166 307.344 744.86 308.041C744.553 308.738 744.473 309.514 744.629 310.259C744.862 311.764 745.829 313.014 745.733 314.549C745.595 316.757 743.388 317.793 743.252 320.001C743.23 321.109 743.646 322.18 744.409 322.984Z" fill="#F17523"/>
<path d="M731.259 285.464L731.293 285.457C731.529 285.242 731.748 285.009 731.948 284.76L731.259 285.464Z" fill="#F17523"/>
<path d="M733.56 295.828C734.482 295.019 735.164 293.973 735.532 292.802C735.899 291.632 735.938 290.384 735.644 289.193C735.086 286.683 733.113 284.995 731.293 285.459C730.765 285.994 730.109 286.386 729.388 286.599C728.667 286.811 727.903 286.836 727.169 286.673C726.044 286.383 724.809 285.637 723.832 286.485C723.274 287.118 722.883 287.881 722.696 288.704C722.335 289.813 721.973 290.922 721.612 292.031C721.441 292.428 721.396 292.868 721.484 293.291C721.553 293.461 721.665 293.61 721.808 293.724C721.952 293.838 722.122 293.913 722.303 293.942L728.805 295.859C729.552 296.203 730.365 296.379 731.186 296.373C732.008 296.368 732.819 296.182 733.56 295.828Z" fill="#F17523"/>
<path d="M897.19 438.895C896.188 437.255 895.186 435.614 894.184 433.974C893.2 432.074 891.855 430.385 890.223 429.001C889.51 428.403 888.588 428.113 887.661 428.195C886.734 428.277 885.877 428.724 885.28 429.437L885.227 429.501L885.349 430.438C888.032 433.314 889.86 436.881 890.628 440.739C890.857 442.415 890.777 444.15 890.978 445.834C890.999 446.615 891.174 447.384 891.492 448.097C891.811 448.81 892.267 449.453 892.834 449.99C894.412 451.044 896.264 449.49 897.387 447.594C898.391 446.036 898.841 444.186 898.665 442.342C898.415 441.104 897.913 439.931 897.19 438.895Z" fill="#F17523"/>
<path d="M912.907 441.031C913.098 439.496 912.974 437.937 912.541 436.451C912.469 434.441 913.002 432.456 914.07 430.752C915.132 429.144 915.936 427.381 916.454 425.525C916.673 424.68 916.633 423.789 916.34 422.966C916.008 422.221 915.205 421.881 914.744 422.471L915.73 423.106C914.399 422.869 913.031 422.935 911.729 423.3C910.986 423.584 910.322 424.044 909.794 424.639C909.267 425.234 908.89 425.947 908.696 426.719C908.533 427.922 908.267 429.109 907.901 430.266C907.312 431.475 906.174 431.877 905.458 432.938C904.97 433.879 904.724 434.926 904.742 435.986C904.759 437.045 905.04 438.084 905.559 439.008C906.457 440.519 907.886 441.643 909.566 442.159C910.771 442.592 912.356 442.615 912.907 441.031Z" fill="#F17523"/>
<path d="M940.897 449.479C941.332 450.612 941.916 451.682 942.631 452.662C943.971 454.012 945.792 453.183 947.418 452.855C948.893 452.622 950.404 452.792 951.79 453.348C953.176 453.904 954.386 454.825 955.291 456.013C954.661 452.868 953.285 449.922 951.279 447.419C949.274 444.917 946.697 442.933 943.766 441.633C939.956 440.315 935.942 439.687 931.912 439.779L931.224 439.956C932.978 445.062 938.486 444.948 940.897 449.479Z" fill="#F17523"/>
<path d="M822.35 459.923L822.36 459.945L822.56 459.56L822.35 459.923Z" fill="#F17523"/>
<path d="M818.103 468.14C817.177 469.821 816.381 471.57 815.721 473.373C814.848 476.292 814.269 479.292 813.995 482.327C813.779 484.053 813.713 486.257 814.794 487.097C815.104 487.304 815.479 487.389 815.848 487.339C816.218 487.289 816.556 487.106 816.8 486.825C817.401 486.19 817.892 485.459 818.254 484.663C820.379 481.004 822.029 477.088 823.164 473.011C824.348 468.686 824.065 464.09 822.36 459.943C820.941 462.676 819.522 465.408 818.103 468.14Z" fill="#F17523"/>
<path d="M777.141 249.168C777.815 249.827 778.668 250.275 779.594 250.456C780.519 250.636 781.478 250.542 782.35 250.185C784.158 249.395 785.816 248.299 787.252 246.947C788.442 246.067 789.451 244.966 790.224 243.705C790.65 242.952 790.923 242.121 791.028 241.262C791.132 240.402 791.065 239.531 790.832 238.697C790.5 237.898 789.97 237.197 789.291 236.66C788.613 236.124 787.808 235.769 786.955 235.63C784.549 234.916 782.143 234.203 779.737 233.489L781.478 231.921C779.687 230.96 777.706 232.743 776.587 234.951C775.869 236.393 775.369 237.933 775.102 239.521C774.722 241.181 774.707 242.903 775.059 244.569C775.411 246.235 776.121 247.804 777.141 249.168Z" fill="#F17523"/>
<path d="M819.615 234.912C820.293 235.66 821.23 236.121 822.236 236.203C823.242 236.285 824.242 235.981 825.032 235.353C825.712 234.842 826.277 234.194 826.689 233.45C827.102 232.707 827.354 231.885 827.428 231.038C827.598 229.145 826.662 227.042 825.326 226.878L825.632 225.107C823.057 224.642 819.89 224.549 818.51 227.675C818.045 228.872 817.902 230.171 818.096 231.441C818.29 232.711 818.814 233.908 819.615 234.912Z" fill="#F17523"/>
<path d="M644.601 362.368C653.471 362.368 660.661 352.726 660.661 340.833C660.661 328.94 653.471 319.299 644.601 319.299C635.732 319.299 628.542 328.94 628.542 340.833C628.542 352.726 635.732 362.368 644.601 362.368Z" fill="#E6E6E6"/>
<path d="M938.069 629.021C945.736 626.98 950.8 621.001 949.379 615.667C947.959 610.334 940.592 607.666 932.925 609.707C925.259 611.749 920.195 617.728 921.615 623.061C923.036 628.395 930.402 631.063 938.069 629.021Z" fill="#E6E6E6"/>
<path d="M844.167 630.76C851.834 628.719 856.897 622.74 855.477 617.406C854.056 612.073 846.69 609.405 839.023 611.446C831.356 613.488 826.293 619.467 827.713 624.801C829.133 630.134 836.5 632.802 844.167 630.76Z" fill="#E6E6E6"/>
<path d="M954.752 550.893C962.418 548.852 967.482 542.873 966.062 537.539C964.641 532.206 957.275 529.538 949.608 531.579C941.941 533.621 936.877 539.6 938.298 544.933C939.718 550.267 947.085 552.935 954.752 550.893Z" fill="#E6E6E6"/>
<path d="M982.448 517.681C985.91 517.252 988.216 512.87 987.599 507.893C986.982 502.917 983.676 499.231 980.214 499.66C976.752 500.09 974.446 504.472 975.063 509.448C975.68 514.424 978.987 518.11 982.448 517.681Z" fill="#E6E6E6"/>
<path d="M989.46 458.736C992.922 458.307 995.228 453.925 994.611 448.949C993.994 443.973 990.687 440.287 987.226 440.716C983.764 441.145 981.458 445.527 982.075 450.503C982.692 455.48 985.998 459.166 989.46 458.736Z" fill="#E6E6E6"/>
<path d="M894.801 572.048C898.263 571.619 900.569 567.237 899.952 562.261C899.335 557.284 896.028 553.598 892.567 554.028C889.105 554.457 886.799 558.839 887.416 563.815C888.033 568.791 891.339 572.477 894.801 572.048Z" fill="#E6E6E6"/>
<path d="M942.277 589.236C945.739 588.807 948.045 584.425 947.428 579.449C946.811 574.473 943.505 570.787 940.043 571.216C936.581 571.645 934.275 576.027 934.892 581.003C935.509 585.98 938.816 589.666 942.277 589.236Z" fill="#E6E6E6"/>
<path d="M884.632 637.908C888.094 637.479 890.4 633.097 889.783 628.121C889.166 623.145 885.86 619.459 882.398 619.888C878.936 620.317 876.63 624.699 877.247 629.675C877.864 634.651 881.17 638.337 884.632 637.908Z" fill="#E6E6E6"/>
<path d="M471.299 550.16C478.966 548.118 484.029 542.139 482.609 536.806C481.189 531.473 473.822 528.804 466.155 530.846C458.489 532.888 453.425 538.867 454.845 544.2C456.266 549.533 463.632 552.202 471.299 550.16Z" fill="#E6E6E6"/>
<path d="M377.392 551.904C385.059 549.862 390.123 543.884 388.702 538.55C387.282 533.217 379.915 530.548 372.248 532.59C364.582 534.632 359.518 540.611 360.938 545.944C362.359 551.278 369.725 553.946 377.392 551.904Z" fill="#E6E6E6"/>
<path d="M487.985 472.032C495.651 469.99 500.715 464.011 499.295 458.678C497.874 453.345 490.508 450.676 482.841 452.718C475.174 454.76 470.111 460.739 471.531 466.072C472.951 471.405 480.318 474.074 487.985 472.032Z" fill="#E6E6E6"/>
<path d="M515.678 438.825C519.14 438.396 521.446 434.014 520.829 429.038C520.212 424.062 516.905 420.376 513.444 420.805C509.982 421.234 507.676 425.616 508.293 430.592C508.91 435.568 512.216 439.254 515.678 438.825Z" fill="#E6E6E6"/>
<path d="M522.69 379.881C526.151 379.452 528.457 375.07 527.841 370.094C527.224 365.117 523.917 361.431 520.455 361.861C516.994 362.29 514.688 366.672 515.305 371.648C515.922 376.624 519.228 380.31 522.69 379.881Z" fill="#E6E6E6"/>
<path d="M428.031 493.187C431.492 492.757 433.799 488.375 433.182 483.399C432.565 478.423 429.258 474.737 425.796 475.166C422.335 475.595 420.029 479.977 420.646 484.954C421.263 489.93 424.569 493.616 428.031 493.187Z" fill="#E6E6E6"/>
<path d="M475.507 510.375C478.969 509.946 481.275 505.564 480.658 500.588C480.041 495.612 476.735 491.926 473.273 492.355C469.811 492.784 467.505 497.166 468.122 502.142C468.739 507.118 472.045 510.804 475.507 510.375Z" fill="#E6E6E6"/>
<path d="M417.862 559.048C421.324 558.619 423.63 554.237 423.013 549.261C422.396 544.284 419.089 540.598 415.628 541.028C412.166 541.457 409.86 545.839 410.477 550.815C411.094 555.791 414.4 559.477 417.862 559.048Z" fill="#E6E6E6"/>
<path d="M1041.82 189.077C1049.49 187.035 1054.55 181.056 1053.13 175.723C1051.71 170.39 1044.35 167.721 1036.68 169.763C1029.01 171.805 1023.95 177.784 1025.37 183.117C1026.79 188.45 1034.16 191.119 1041.82 189.077Z" fill="#E6E6E6"/>
<path d="M947.916 190.821C955.583 188.779 960.647 182.8 959.226 177.467C957.806 172.134 950.439 169.465 942.773 171.507C935.106 173.549 930.042 179.528 931.462 184.861C932.883 190.194 940.249 192.863 947.916 190.821Z" fill="#E6E6E6"/>
<path d="M1058.51 110.949C1066.18 108.907 1071.24 102.928 1069.82 97.595C1068.4 92.2615 1061.03 89.5932 1053.36 91.635C1045.7 93.6768 1040.63 99.6556 1042.05 104.989C1043.47 110.322 1050.84 112.991 1058.51 110.949Z" fill="#E6E6E6"/>
<path d="M1086.2 77.7423C1089.66 77.3131 1091.97 72.9312 1091.35 67.955C1090.74 62.9788 1087.43 59.2927 1083.97 59.7219C1080.51 60.1511 1078.2 64.533 1078.82 69.5092C1079.43 74.4854 1082.74 78.1715 1086.2 77.7423Z" fill="#E6E6E6"/>
<path d="M1093.21 18.7979C1096.68 18.3687 1098.98 13.9868 1098.36 9.01061C1097.75 4.03442 1094.44 0.348359 1090.98 0.777554C1087.52 1.20675 1085.21 5.58867 1085.83 10.5649C1086.45 15.5411 1089.75 19.2271 1093.21 18.7979Z" fill="#E6E6E6"/>
<path d="M998.555 132.109C1002.02 131.679 1004.32 127.297 1003.71 122.321C1003.09 117.345 999.782 113.659 996.32 114.088C992.859 114.517 990.553 118.899 991.17 123.875C991.787 128.852 995.093 132.538 998.555 132.109Z" fill="#E6E6E6"/>
<path d="M1046.03 149.292C1049.49 148.863 1051.8 144.481 1051.18 139.505C1050.56 134.529 1047.26 130.843 1043.8 131.272C1040.34 131.701 1038.03 136.083 1038.65 141.059C1039.26 146.035 1042.57 149.721 1046.03 149.292Z" fill="#E6E6E6"/>
<path d="M988.386 197.964C991.848 197.535 994.154 193.153 993.537 188.177C992.92 183.2 989.613 179.514 986.152 179.944C982.69 180.373 980.384 184.755 981.001 189.731C981.618 194.707 984.924 198.393 988.386 197.964Z" fill="#E6E6E6"/>
<path d="M443.083 563.524C427.72 563.524 417.731 559.706 413.31 552.117C404.593 537.151 419.193 510.891 456.707 474.068L459.858 477.277C425.012 511.484 409.861 537.258 417.197 549.853C421.839 557.819 435.653 560.674 457.156 558.106C478.501 555.558 506.789 547.962 541.234 535.532C612.146 509.939 701.113 466.771 791.745 413.977C882.374 361.185 963.811 305.09 1021.06 256.029C1032.05 246.604 1042.03 237.537 1050.71 229.082C1062.12 218.253 1072.63 206.531 1082.17 194.028C1095.01 176.593 1099.34 163.167 1094.7 155.199C1086.95 141.892 1054.38 143.143 1003 158.728L1001.69 154.423C1056.82 137.705 1089.42 137.203 1098.59 152.936C1104.28 162.71 1099.97 177.433 1085.79 196.696C1076.11 209.397 1065.43 221.305 1053.85 232.305C1045.1 240.827 1035.05 249.958 1023.98 259.445C966.539 308.678 884.866 364.939 794.009 417.864C703.15 470.791 613.921 514.082 542.762 539.764C507.996 552.31 479.373 559.985 457.689 562.572C452.843 563.177 447.966 563.495 443.083 563.524Z" fill="#3F3D56"/>
</svg>
